<?xml version="1.0" encoding="UTF-8"?>
<svg id="Layer_2" data-name="Layer 2" xmlns="http://www.w3.org/2000/svg" viewBox="0 0 391.17 263.18">
  <defs>
    <style>
      .cls-1 {
        fill: #4bc0d9;
      }

      .cls-2 {
        fill: #fd9bc7;
      }
    </style>
  </defs>
  <g id="Layer_1-2" data-name="Layer 1">
    <g>
      <path class="cls-2" d="M144.8,114.53c0-15.2,2.7-29.35,8.1-42.45,5.4-13.1,12.9-24.5,22.5-34.2,9.6-9.7,20.95-17.3,34.05-22.8,13.1-5.5,27.25-8.25,42.45-8.25s29.65,2.75,42.75,8.25c13.1,5.5,24.45,13.05,34.05,22.65,9.6,9.6,17.15,20.95,22.65,34.05,5.5,13.1,8.25,27.35,8.25,42.75,0,13.8-2.3,26.95-6.9,39.45-4.6,12.5-11.1,23.55-19.5,33.15l55.17,59.99c3.6,3.6-1.26,7.22-4.66,10.62h0c-3.8,3.4-6.07,5.57-8.87,2.38l-53.94-60.09c-9.6,8.4-20.25,14.65-31.95,18.75-11.7,4.1-24.05,6.15-37.05,6.15-15.2,0-29.35-2.8-42.45-8.4-13.1-5.6-24.45-13.35-34.05-23.25-9.6-9.9-17.1-21.6-22.5-35.1-5.4-13.5-8.1-28.05-8.1-43.65ZM166.4,114.53c0,12.8,2.2,24.75,6.6,35.85,4.4,11.1,10.4,20.7,18,28.8,7.6,8.1,16.65,14.5,27.15,19.2,10.5,4.7,21.75,7.05,33.75,7.05,10.2.2,20-1.4,29.4-4.8,9.4-3.4,17.8-8.3,25.2-14.7l-20.7-21.3c-3.8-3.2-3.9-6.6-.3-10.2l2.4-2.4c3.2-3.6,6.6-3.8,10.2-.6l20.4,21.3c6.2-7.6,11-16.45,14.4-26.55,3.4-10.1,5.1-20.65,5.1-31.65,0-12.6-2.2-24.25-6.6-34.95-4.4-10.7-10.45-20-18.15-27.9-7.7-7.9-16.8-14.1-27.3-18.6s-21.85-6.75-34.05-6.75-23.5,2.25-33.9,6.75c-10.4,4.5-19.45,10.7-27.15,18.6-7.7,7.9-13.7,17.2-18,27.9-4.3,10.7-6.45,22.35-6.45,34.95Z"/>
      <path class="cls-1" d="M49.02,114.53c0-15.6,2.65-29.95,7.95-43.05,5.3-13.1,12.65-24.45,22.05-34.05,9.4-9.6,20.55-17.1,33.45-22.5s27.05-8.1,42.45-8.1c12.8,0,25.55,2.05,38.25,6.15,12.7,4.1,23.55,9.55,32.55,16.35,3.2,3,3.6,6.5,1.2,10.5l-2.7,3.9c-2.8,3.8-6.2,4.2-10.2,1.2-8.4-5.8-17.75-10.35-28.05-13.65-10.3-3.3-20.45-4.95-30.45-4.95-12.4,0-23.8,2.15-34.2,6.45-10.4,4.3-19.35,10.35-26.85,18.15-7.5,7.8-13.35,17.1-17.55,27.9s-6.3,22.6-6.3,35.4,2.15,25.4,6.45,36.6c4.3,11.2,10.25,20.85,17.85,28.95,7.6,8.1,16.65,14.4,27.15,18.9s21.95,6.75,34.35,6.75c10.8,0,21.7-2,32.7-6,11-4,21-9.6,30-16.8,3.8-3,7.2-2.7,10.2.9l2.7,3.3c2.8,3.8,2.6,7.3-.6,10.5-10.2,8.6-22.05,15.35-35.55,20.25s-26.85,7.35-40.05,7.35c-15.6,0-29.9-2.75-42.9-8.25-13-5.5-24.25-13.15-33.75-22.95-9.5-9.8-16.9-21.45-22.2-34.95-5.3-13.5-7.95-28.25-7.95-44.25Z"/>
      <rect class="cls-2" x="319.83" y="220.64" width="78.04" height="20.45" rx="6.04" ry="6.04" transform="translate(775.84 140.37) rotate(135)"/>
      <rect class="cls-1" x="2.59" y="32.42" width="78.04" height="20.45" rx="6.04" ry="6.04" transform="translate(56.31 100.38) rotate(-150)"/>
      <rect class="cls-1" x="-12.27" y="30.56" width="48" height="20.45" rx="6.04" ry="6.04" transform="translate(-27.91 55.93) rotate(-94.86)"/>
      <rect class="cls-1" x="-.06" y="7.69" width="48" height="20.45" rx="6.04" ry="6.04" transform="translate(-5.52 12.81) rotate(-26.98)"/>
    </g>
  </g>
</svg>